<?xml version="1.0" encoding="UTF-8"?>
<svg xmlns="http://www.w3.org/2000/svg" xmlns:xlink="http://www.w3.org/1999/xlink" width="512" height="512" viewBox="0 0 58 45" version="1.1"><!-- Generator: Sketch 51.3 (57544) - http://www.bohemiancoding.com/sketch --><title>032 - Motorbike</title><desc>Created with Sketch.</desc><defs/><g id="Page-1" stroke="none" stroke-width="1" fill="none" fill-rule="evenodd"><g id="032---Motorbike" fill-rule="nonzero"><path d="M43.97,15.19 C42.3,12.84 39.435,11.625 31.125,11.625 L28.187,11.812 C19.878,11.812 15.7,12.84 14.03,15.19 C14.3,10.81 16.24,0 29,0 C41.76,0 43.7,10.81 43.97,15.19 Z" id="Shape" fill="#B0D3F0"/><path d="M44.81,16.58 C44.7004577,16.6617638 44.6114439,16.7678957 44.55,16.89 L44.28,17.45 C44.1089345,17.7895038 43.7601569,18.0026457 43.38,18 L42.62,18 C42.4137325,17.9954291 42.2122715,18.0625828 42.05,18.19 L42.04,18.19 C42.01,18.17 41.99,18.15 41.96,18.13 C40.42,17.19 34.737,18.967 32.687,18.438 C32.017,16.707 32.725,16.625 30.875,16.625 L27.125,16.625 C25.275,16.625 25.295,17.02 24.625,18.75 C22.575,19.28 17.58,17.19 16.04,18.13 C16.01,18.15 15.99,18.17 15.96,18.19 L15.95,18.19 C15.7877285,18.0625828 15.5862675,17.9954291 15.38,18 L14.62,18 C14.2398431,18.0026457 13.8910655,17.7895038 13.72,17.45 L13.45,16.89 C13.3885561,16.7678957 13.2995423,16.6617638 13.19,16.58 C13.434666,16.0962128 13.715462,15.6315624 14.03,15.19 C15.7,12.84 19.69,9 28,9 L30,9 C38.31,9 42.3,12.84 43.97,15.19 C44.284538,15.6315624 44.565334,16.0962128 44.81,16.58 Z" id="Shape" fill="#4482C3"/><path d="M30.375,22.75 L33.5,34.875 C29.96,35.295 18.43,31.68 16.46,33.11 C13.09,31.2 11,28.5 11,25.5 L11,25.4 C11.0016891,25.3097003 11.0083659,25.219563 11.02,25.13 C11.581398,25.3558871 12.2154071,25.3116539 12.74,25.01 L18,22 L30.375,22.75 Z" id="Shape" fill="#285680"/><path d="M47,25.4 L47,25.5 C47,28.5 44.91,31.2 41.54,33.11 C39.57,31.68 32.29,33.733 28.75,33.31 L26.875,22.81 L40,22 L45.26,25.01 C45.7845929,25.3116539 46.418602,25.3558871 46.98,25.13 C46.9916341,25.219563 46.9983109,25.3097003 47,25.4 Z" id="Shape" fill="#285680"/><path d="M14.779,19.667 C14.5401843,19.6669784 14.3092611,19.5814907 14.128,19.426 L4.5,11.173 C4.09719558,10.8099361 4.05716613,10.1919837 4.40976399,9.77998662 C4.76236185,9.36798959 5.3790822,9.31210086 5.8,9.654 L15.429,17.907 C15.7473513,18.1792414 15.862291,18.6210468 15.7169741,19.0139157 C15.5716573,19.4067846 15.1968827,19.6674514 14.778,19.667 L14.779,19.667 Z" id="Shape" fill="#5E5F62"/><path d="M44.487,18.582 C44.0681173,18.5824514 43.6933427,18.3217846 43.5480259,17.9289157 C43.402709,17.5360468 43.5176487,17.0942414 43.836,16.822 L50.936,10.739 C51.2059265,10.4957044 51.5865913,10.4179873 51.9302841,10.5360056 C52.2739769,10.654024 52.5265965,10.9492002 52.5901182,11.3069963 C52.6536398,11.6647924 52.5180645,12.0288873 52.236,12.258 L45.136,18.341 C44.9552614,18.4960435 44.7251275,18.5815016 44.487,18.582 Z" id="Shape" fill="#5E5F62"/><path d="M24.708,18.542 C24.558,19.092 23.698,22.852 23.958,23.292 L17,20 L16.28,18.55 C16.2099895,18.4018448 16.0989253,18.2768976 15.96,18.19 C15.99,18.17 16.01,18.15 16.04,18.13 C17.7307338,17.1218396 19.5602078,16.3671394 21.47,15.89 C21.4095953,16.0294892 21.3594618,16.1732051 21.32,16.32 L24.708,18.542 Z" id="Shape" fill="#285680"/><path d="M8,7 L8,12 C8.00001833,12.2383445 7.9149056,12.4688582 7.76,12.65 C7.56759928,12.868944 7.29144378,12.9961209 7,13 L3.5,13 C1.57086971,12.9906976 0.00930244954,11.4291303 0,9.5 C-5.55111512e-16,7.56700338 1.56700338,6 3.5,6 L7,6 C7.55228475,6 8,6.44771525 8,7 Z" id="Shape" fill="#A5A5A4"/><path d="M10.31,24.66 L4.85,27.32 C4.04235606,27.756687 3.06033046,27.7155299 2.29205805,27.2127956 C1.52378565,26.7100613 1.09290323,25.8266539 1.16971234,24.9117306 C1.24652146,23.9968074 1.81866136,23.1976052 2.66,22.83 L7.76,20.34 L11.417,21 C11.507,21.15 10.2,24.55 10.31,24.66 Z" id="Shape" fill="#35495E"/><path d="M18,22 L12.74,25.01 C12.2154071,25.3116539 11.581398,25.3558871 11.02,25.13 C10.7530058,25.0248312 10.5111068,24.8647008 10.31,24.66 C10.1943465,24.5391581 10.0936252,24.4048631 10.01,24.26 L7.76,20.34 L7.52,19.92 C7.38445308,19.6802974 7.35375075,19.395308 7.43513294,19.1322354 C7.51651514,18.8691627 7.70277844,18.6512922 7.95,18.53 L12.11,16.45 C12.1282422,16.4389076 12.1487508,16.4320713 12.17,16.43 C12.509884,16.274855 12.9091706,16.3335736 13.19,16.58 C13.2995423,16.6617638 13.3885561,16.7678957 13.45,16.89 L13.72,17.45 C13.8910655,17.7895038 14.2398431,18.0026457 14.62,18 L15.38,18 C15.5862675,17.9954291 15.7877285,18.0625828 15.95,18.19 L15.96,18.19 C16.0989253,18.2768976 16.2099895,18.4018448 16.28,18.55 L17,20 L18,22 Z" id="Shape" fill="#2C3E50"/><path d="M58,9.5 C57.9906976,11.4291303 56.4291303,12.9906976 54.5,13 L51,13 C50.7085562,12.9961209 50.4324007,12.868944 50.24,12.65 C50.0850944,12.4688582 49.9999817,12.2383445 50,12 L50,7 C50,6.44771525 50.4477153,6 51,6 L54.5,6 C55.4282577,6 56.3184964,6.36874894 56.9748737,7.02512627 C57.6312511,7.68150359 58,8.57174229 58,9.5 Z" id="Shape" fill="#A5A5A4"/><path d="M56.75,25.08 C56.7482788,25.9419762 56.3026278,26.742265 55.5707597,27.1976495 C54.8388916,27.6530341 53.9240534,27.699272 53.15,27.32 L47.69,24.66 C47.8,24.55 46.629,20.869 46.719,20.719 L50.24,20.34 L55.34,22.83 C56.2012042,23.2490917 56.7483759,24.1222381 56.75,25.08 Z" id="Shape" fill="#35495E"/><path d="M42.04,18.19 C41.9010747,18.2768976 41.7900105,18.4018448 41.72,18.55 L42.062,21.688 L33.125,21.812 C33.385,21.372 34.65,19.3 34.5,18.75 L36.68,16.32 C36.6405382,16.1732051 36.5904047,16.0294892 36.53,15.89 C38.4397922,16.3671394 40.2692662,17.1218396 41.96,18.13 C41.99,18.15 42.01,18.17 42.04,18.19 Z" id="Shape" fill="#285680"/><path d="M43.86,36 C43.4307091,34.8048353 42.61407,33.7875565 41.54,33.11 C38.9732447,31.4596589 36.0409514,30.4639153 33,30.21 C31.8388061,30.0676066 30.6698892,29.9974716 29.5,30 C29.33,30 29.17,30 29,30.01 C28.83,30 28.67,30 28.5,30 C27.3301108,29.9974716 26.1611939,30.0676066 25,30.21 C21.9590486,30.4639153 19.0267553,31.4596589 16.46,33.11 C15.38593,33.7875565 14.5692909,34.8048353 14.14,36 C14.0487265,36.3255524 14.001638,36.6618987 14,37 L16,45 L42,45 L44,37 C43.998362,36.6618987 43.9512735,36.3255524 43.86,36 Z M34,38 C34,39.1 31.99,40 29.5,40 C29.33,40 29.16,40 29,39.99 C28.84,40 28.67,40 28.5,40 C26.01,40 24,39.1 24,38 L24,35 C24,33.9 26.01,33 28.5,33 C28.67,33 28.84,33 29,33.01 C29.16,33 29.33,33 29.5,33 C31.99,33 34,33.9 34,35 L34,38 Z" id="Shape" fill="#90BAE1"/><path d="M33,26 L33,30.21 C31.8388061,30.0676066 30.6698892,29.9974716 29.5,30 C29.33,30 29.17,30 29,30.01 C28.83,30 28.67,30 28.5,30 C27.3301108,29.9974716 26.1611939,30.0676066 25,30.21 L25,26 L33,26 Z" id="Shape" fill="#4482C3"/><path d="M34,35 C34,36.1 31.99,37 29.5,37 C29.33,37 29.16,37 29,36.99 C28.84,37 28.67,37 28.5,37 C26.01,37 24,36.1 24,35 C24,33.9 26.01,33 28.5,33 C28.67,33 28.84,33 29,33.01 C29.16,33 29.33,33 29.5,33 C31.99,33 34,33.9 34,35 Z" id="Shape" fill="#35495E"/><path d="M34,35 L34,38 C34,39.1 31.99,40 29.5,40 C29.33,40 29.16,40 29,39.99 C28.84,40 28.67,40 28.5,40 C26.01,40 24,39.1 24,38 L24,35 C24,36.1 26.01,37 28.5,37 C28.67,37 28.84,37 29,36.99 C29.16,37 29.33,37 29.5,37 C31.99,37 34,36.1 34,35 Z" id="Shape" fill="#2C3E50"/><path d="M37.09,20 C36.7343135,20.6193785 36.0742421,21.0009226 35.36,21 L33.95,21 C33.98198,20.8352216 33.9987173,20.6678482 34,20.5 C34,19.1192881 32.8807119,18 31.5,18 C30.1192881,18 29,19.1192881 29,20.5 C29,19.1192881 27.8807119,18 26.5,18 C25.1192881,18 24,19.1192881 24,20.5 C24.0012827,20.6678482 24.01802,20.8352216 24.05,21 L22.64,21 C22.0147426,20.9976498 21.4262258,20.7043143 21.0479401,20.2064668 C20.6696543,19.7086192 20.5447323,19.0630248 20.71,18.46 L21.32,16.32 C21.3594618,16.1732051 21.4095953,16.0294892 21.47,15.89 C22.1303721,14.1583966 23.7867777,13.010432 25.64,13 L32.36,13 C34.2132223,13.010432 35.8696279,14.1583966 36.53,15.89 C36.5904047,16.0294892 36.6405382,16.1732051 36.68,16.32 L37.29,18.46 C37.4348785,18.9792186 37.3626975,19.5350121 37.09,20 Z" id="Shape" fill="#2C2F38"/><path d="M41,20 L40,22 L33,26 L25,26 L18,22 L17,20 L20.91,20 C21.2656865,20.6193785 21.9257579,21.0009226 22.64,21 L35.36,21 C36.0742421,21.0009226 36.7343135,20.6193785 37.09,20 L41,20 Z" id="Shape" fill="#90BAE1"/><path d="M34,20.5 C33.9987173,20.6678482 33.98198,20.8352216 33.95,21 L24.05,21 C24.01802,20.8352216 24.0012827,20.6678482 24,20.5 C24,19.1192881 25.1192881,18 26.5,18 C27.8807119,18 29,19.1192881 29,20.5 C29,19.1192881 30.1192881,18 31.5,18 C32.8807119,18 34,19.1192881 34,20.5 Z" id="Shape" fill="#FFFFFF"/><path d="M27.38,20.16 L27.38,21 L25.38,21 L25.38,20.16 C25.38,19.6077153 25.8277153,19.16 26.38,19.16 C26.9322847,19.16 27.38,19.6077153 27.38,20.16 Z" id="Shape" fill="#E64C3C"/><path d="M32.38,20.16 L32.38,21 L30.38,21 L30.38,20.16 C30.38,19.6077153 30.8277153,19.16 31.38,19.16 C31.9322847,19.16 32.38,19.6077153 32.38,20.16 Z" id="Shape" fill="#E64C3C"/><path d="M50.48,19.92 L50.24,20.34 L47.99,24.26 C47.9063748,24.4048631 47.8056535,24.5391581 47.69,24.66 C47.4888932,24.8647008 47.2469942,25.0248312 46.98,25.13 C46.418602,25.3558871 45.7845929,25.3116539 45.26,25.01 L40,22 L41,20 L41.72,18.55 C41.7900105,18.4018448 41.9010747,18.2768976 42.04,18.19 L42.05,18.19 C42.2122715,18.0625828 42.4137325,17.9954291 42.62,18 L43.38,18 C43.7601569,18.0026457 44.1089345,17.7895038 44.28,17.45 L44.55,16.89 C44.6114439,16.7678957 44.7004577,16.6617638 44.81,16.58 C45.0908294,16.3335736 45.490116,16.274855 45.83,16.43 C45.8512492,16.4320713 45.8717578,16.4389076 45.89,16.45 L50.05,18.53 C50.2972216,18.6512922 50.4834849,18.8691627 50.5648671,19.1322354 C50.6462493,19.395308 50.6155469,19.6802974 50.48,19.92 Z" id="Shape" fill="#2C3E50"/></g></g></svg>
